<svg id="Layer_1" data-name="Layer 1" xmlns="http://www.w3.org/2000/svg" viewBox="0 0 283.46 283.46"><defs><style>.cls-1{fill:#e6351f;}</style></defs><title>arrow</title><path class="cls-1" d="M133.62,10.14l0,7.08.06,19.09.1,28.42.12,34.43.14,38,.13,38.07.12,35.74.11,30,.07,21.72c0,3.4,0,6.81,0,10.22v.45c0,3.92,3.44,7.68,7.5,7.5a7.64,7.64,0,0,0,7.5-7.5l0-7.08-.07-19.1-.1-28.41-.12-34.44-.13-38L149,108.27l-.12-35.74-.1-30-.08-21.72c0-3.41,0-6.82,0-10.22v-.45c0-3.92-3.44-7.68-7.5-7.5a7.63,7.63,0,0,0-7.5,7.5Z"/><path class="cls-1" d="M16.35,159.32l11.94,11.85,28.65,28.45,34.47,34.23,30,29.74c4.84,4.81,9.61,9.7,14.53,14.43l.2.2c2.79,2.77,7.86,3,10.6,0a7.62,7.62,0,0,0,0-10.61l-11.93-11.85-28.65-28.45L71.64,193.08,41.69,163.34c-4.84-4.81-9.61-9.7-14.53-14.43l-.2-.2c-2.79-2.77-7.86-3-10.61,0a7.64,7.64,0,0,0,0,10.61Z"/><path class="cls-1" d="M256.5,149.07l-11.93,11.85-28.65,28.46-34.47,34.23L151.5,253.35c-4.84,4.8-9.77,9.54-14.53,14.43l-.2.19c-2.79,2.77-3,7.88,0,10.61a7.63,7.63,0,0,0,10.61,0l11.93-11.85L188,238.28l34.47-34.23,29.95-29.74c4.84-4.81,9.77-9.55,14.53-14.43l.2-.2c2.79-2.77,3-7.87,0-10.61a7.65,7.65,0,0,0-10.61,0Z"/></svg>
