<svg id="Layer_1" data-name="Layer 1" xmlns="http://www.w3.org/2000/svg" viewBox="0 0 300 300"><defs><style>.cls-1{fill-rule:evenodd;}</style></defs><title>instagram_icon</title><g id="Component_7_2" data-name="Component 7 2"><path id="Path_4" data-name="Path 4" class="cls-1" d="M203.44,9.5H96.88A87.74,87.74,0,0,0,9,97.08V203.64a87.74,87.74,0,0,0,87.6,87.86H203.44A87.74,87.74,0,0,0,291,203.64V97.08A87.76,87.76,0,0,0,203.44,9.5Zm32,66.29a10.83,10.83,0,0,0-10.77-10.47,10.64,10.64,0,0,0,0,21.27A10.9,10.9,0,0,0,235.48,75.79Zm-85.31,4.77a70.41,70.41,0,1,0,49.15,20.61A70.42,70.42,0,0,0,150.17,80.56Zm0,115.44a45.68,45.68,0,1,1,32-77.71,44.36,44.36,0,0,1,13.62,32A46,46,0,0,1,150.17,196Zm116.7,7.6a63.92,63.92,0,0,1-63.43,63.77H96.88A63.91,63.91,0,0,1,33.13,203.6V97.08A63.94,63.94,0,0,1,96.88,33.63H203.44a63.93,63.93,0,0,1,63.43,63.45Z"/></g></svg>
