<svg id="Layer_1" data-name="Layer 1" xmlns="http://www.w3.org/2000/svg" viewBox="0 0 500 500"><defs><style>.cls-1{fill:#707070;fill-rule:evenodd;}</style></defs><title>grey_insta_footer_logo</title><path id="Path_274" data-name="Path 274" class="cls-1" d="M307.3,95.71H190.9a95.84,95.84,0,0,0-96,95.64V307.73a95.82,95.82,0,0,0,95.66,96H307.3a95.84,95.84,0,0,0,95.64-96V191.35A95.87,95.87,0,0,0,307.3,95.71Zm35,72.41a11.84,11.84,0,0,0-11.77-11.43,11.62,11.62,0,0,0-.27,23.23,1.22,1.22,0,0,0,.27,0,11.92,11.92,0,0,0,11.77-11.8Zm-93.19,5.21a76.9,76.9,0,1,0,53.69,22.51,76.9,76.9,0,0,0-53.69-22.51Zm0,126.1a49.89,49.89,0,1,1,35-84.89,48.42,48.42,0,0,1,14.88,35,50.3,50.3,0,0,1-49.88,49.91Zm127.49,8.3a69.81,69.81,0,0,1-69.3,69.65H190.9a69.79,69.79,0,0,1-69.63-69.65V191.34A69.83,69.83,0,0,1,190.9,122H307.3a69.85,69.85,0,0,1,69.3,69.31Z"/></svg>
